<svg width="128" height="128" viewBox="0 0 128 128" fill="none" xmlns="http://www.w3.org/2000/svg">
<circle cx="64" cy="64" r="64" fill="#D4FFC7"/>
<path d="M65.8613 22.708C68.4714 22.9208 70.9497 23.6646 73.2744 24.5225L73.2852 24.5264L73.2949 24.5303C80.4663 27.3328 86.8415 31.6515 92.7031 36.4092L93.2685 36.8711L93.3037 36.8994L93.3359 36.9307C93.337 36.9316 93.3417 36.9362 93.3496 36.9434C93.3596 36.9524 93.373 36.9639 93.3896 36.9785C93.4237 37.0084 93.4665 37.0462 93.5176 37.0898C93.539 37.1081 93.5619 37.1268 93.585 37.1465C94.5127 35.5736 94.7436 33.7429 93.9814 31.6543L93.956 31.584L93.9394 31.5127C93.7314 30.583 93.8996 29.5853 94.5449 28.8721C95.2049 28.1428 96.1894 27.9031 97.1953 28.1611L97.293 28.1875H97.2959C98.7771 28.6181 99.8598 29.6148 100.689 30.5107L100.853 30.6875L100.859 30.6953L100.866 30.7041C103.799 34.0662 104.678 38.8855 103.236 43.042C103.119 43.3859 102.964 43.8609 102.76 44.3066C102.695 44.4478 102.622 44.5968 102.536 44.7471C105.448 47.4476 106.671 51.2207 106.797 54.9941C106.869 55.0453 106.964 55.113 107.075 55.1973C107.324 55.3854 107.667 55.6589 108.077 56.0225C108.898 56.7499 109.993 57.8419 111.151 59.3418C113.473 62.349 116.036 66.9784 117.172 73.5469L117.403 74.8828H117.359C117.896 79.8866 116.629 85.0029 113.894 88.7353L113.75 88.9277C110.931 92.6542 106.58 94.9379 101.315 94.0752C99.3234 97.7091 96.0552 100.623 91.0566 101.938L91.0342 101.946C90.9565 101.974 90.8469 102.012 90.7051 102.059C90.421 102.152 90.0074 102.28 89.4629 102.432C88.3734 102.735 86.7556 103.13 84.5811 103.522C80.3668 104.283 74.0652 105.031 65.4717 105.077L64.6328 105.079H64.4717C55.7303 105.079 49.2875 104.354 44.9385 103.596L44.5244 103.522C42.3496 103.13 40.7312 102.735 39.6416 102.432C39.0972 102.28 38.6844 102.152 38.4004 102.059L38.0713 101.946C38.0638 101.944 38.056 101.941 38.0488 101.938C32.9452 100.594 29.6444 97.5839 27.665 93.8428C27.6604 93.8341 27.6559 93.8251 27.6514 93.8164C21.8427 95.2834 17.0173 92.9552 13.9707 88.9277C10.887 84.8508 9.59554 79.0479 10.5488 73.5459C11.6851 66.9777 14.2474 62.3489 16.5693 59.3418C17.7275 57.842 18.8226 56.7499 19.6436 56.0225C20.0539 55.6589 20.3964 55.3854 20.6455 55.1973C20.734 55.1305 20.8118 55.0743 20.876 55.0283C21.0048 51.129 22.5542 47.3597 25.918 44.8408C25.8177 44.664 25.7359 44.4889 25.666 44.3242C25.5675 44.0921 25.4849 43.8596 25.415 43.6592C25.3414 43.4479 25.2826 43.2763 25.2178 43.1123L25.209 43.0889L25.2012 43.0654C23.7602 38.8853 24.6441 34.0395 27.6035 30.6641L27.6084 30.6592C28.1313 30.0705 29.064 29.1421 30.1221 28.5605C30.653 28.2687 31.2995 28.0172 31.9941 28.0049C32.6891 27.9927 33.3725 28.2231 33.9434 28.7568L34.0557 28.8682L34.1172 28.9307L34.168 29.0029C34.6887 29.7404 34.7579 30.5181 34.6826 31.1758C34.6148 31.7681 34.4044 32.3933 34.3037 32.752L34.2988 32.7695C33.8201 34.3736 34.2214 36.0157 35.2051 37.4736C39.3816 34.3148 43.6882 31.3789 48.1689 28.6436L48.1797 28.6367L48.1914 28.6299C52.667 26.0376 57.6962 23.2964 63.2441 22.7412V22.6465H64.3857C64.4682 22.6465 64.5532 22.6472 64.6396 22.6484C64.654 22.648 64.6711 22.6479 64.6865 22.6475L65.8613 22.6133V22.708ZM80.9014 102.943C80.8109 102.956 80.7197 102.967 80.6279 102.979C80.7197 102.967 80.8109 102.956 80.9014 102.943ZM26.541 92.8916C26.482 92.9027 26.4231 92.9135 26.3643 92.9238C26.4231 92.9135 26.482 92.9027 26.541 92.8916ZM115.702 72.001C115.786 72.3764 115.865 72.7592 115.939 73.1494C115.865 72.7592 115.786 72.3764 115.702 72.001ZM17.8857 59.5195C17.7495 59.6868 17.6123 59.8605 17.4736 60.04C17.3349 60.2197 17.195 60.4055 17.0547 60.5977C17.1949 60.4057 17.335 60.2196 17.4736 60.04C17.6123 59.8605 17.7495 59.6868 17.8857 59.5195ZM109.834 59.5205C109.97 59.6877 110.108 59.8605 110.247 60.04C111.08 61.1188 111.95 62.4201 112.769 63.9609C111.95 62.42 111.08 61.1189 110.247 60.04C110.108 59.8605 109.97 59.6877 109.834 59.5205ZM108.293 57.8008C108.411 57.9204 108.533 58.0455 108.657 58.1768C108.409 57.9142 108.171 57.6753 107.947 57.459L108.293 57.8008ZM21.8545 55.71C21.7736 55.7736 21.7088 55.8275 21.6631 55.8672C21.6573 55.8722 21.6517 55.8773 21.6465 55.8818C21.6334 55.8908 21.6183 55.9014 21.6016 55.9131C21.5376 55.9579 21.4472 56.0229 21.334 56.1084C21.1071 56.2797 20.787 56.5344 20.4004 56.877V56.8779C20.7872 56.5352 21.1071 56.2808 21.334 56.1094C21.4472 56.0239 21.5376 55.9589 21.6016 55.9141C21.6182 55.9024 21.6335 55.8918 21.6465 55.8828C21.6516 55.8783 21.6574 55.8731 21.6631 55.8682C21.7088 55.8285 21.7734 55.7747 21.8545 55.7109V55.71ZM105.866 55.7109C105.947 55.7747 106.011 55.8285 106.057 55.8682C106.062 55.8732 106.068 55.8782 106.073 55.8828C106.086 55.8918 106.101 55.9023 106.118 55.9141C106.182 55.959 106.273 56.0237 106.387 56.1094C106.614 56.2807 106.933 56.5354 107.319 56.8779V56.877C106.933 56.5345 106.614 56.2797 106.387 56.1084C106.273 56.0228 106.182 55.958 106.118 55.9131C106.101 55.9014 106.086 55.8908 106.073 55.8818C106.068 55.8773 106.062 55.8721 106.057 55.8672C106.011 55.8275 105.947 55.7735 105.866 55.71V55.7109ZM22.0283 54.7832C22.0211 54.9216 22.016 55.0603 22.0127 55.1992L22.0273 54.8076C22.0278 54.7995 22.0279 54.7913 22.0283 54.7832ZM105.155 51.4512C105.218 51.6916 105.274 51.9343 105.324 52.1787C105.274 51.9343 105.218 51.6916 105.155 51.4512ZM101.012 44.9502C102.251 45.9126 103.214 47.0731 103.933 48.3623C103.573 47.7174 103.152 47.105 102.667 46.5332C102.505 46.3427 102.336 46.1567 102.16 45.9756C101.984 45.7946 101.801 45.6182 101.609 45.4473C101.514 45.3616 101.416 45.2773 101.316 45.1943C101.217 45.1116 101.116 45.0303 101.013 44.9502L101.039 44.9336L101.012 44.9502ZM25.6787 46.5283C25.4833 46.7103 25.2961 46.8974 25.1172 47.0898C25.2961 46.8974 25.4833 46.7102 25.6787 46.5283ZM26.9512 45.5049C26.7219 45.6638 26.5013 45.8291 26.2891 46C26.5013 45.8291 26.7219 45.6638 26.9512 45.5049ZM102.157 42.6689C102.032 43.0363 101.897 43.4485 101.722 43.832L101.847 43.54C101.965 43.2449 102.063 42.9436 102.157 42.668V42.6689ZM102.535 41.292C102.489 41.5136 102.438 41.7343 102.378 41.9531C102.438 41.7343 102.489 41.5136 102.535 41.292ZM34.4287 38.3564C34.6055 38.6014 34.7948 38.8391 34.9951 39.0684V39.0674C34.795 38.8383 34.6054 38.6012 34.4287 38.3564ZM93.1357 38.2637L93.1367 38.2627L93.1357 38.2637ZM87.9717 34.1836C88.7503 34.7578 89.5203 35.3438 90.2822 35.9395C89.5203 35.3438 88.7503 34.7578 87.9717 34.1836ZM33.0303 35.1182C33.0995 35.5518 33.2142 35.9773 33.3672 36.3916C33.1887 35.9082 33.0631 35.4094 33 34.9004L33.0303 35.1182ZM101.946 34.6445C102.085 34.9912 102.206 35.3443 102.31 35.7021L102.2 35.3457C102.123 35.1094 102.038 34.8756 101.946 34.6445ZM26.2471 35.3271V35.3281V35.3271ZM101.115 32.9736C101.245 33.1872 101.367 33.4048 101.481 33.626C101.367 33.4048 101.245 33.1872 101.115 32.9736ZM27.9814 32.0059C27.905 32.1065 27.8306 32.2085 27.7578 32.3115C27.685 32.4146 27.614 32.5188 27.5449 32.624V32.625C27.7523 32.3091 27.9761 32.0028 28.2168 31.708L27.9814 32.0059ZM99.3594 30.7812C99.5841 30.999 99.7988 31.2264 100.006 31.4551C100.255 31.7405 100.488 32.0374 100.704 32.3447C100.488 32.0372 100.255 31.7397 100.006 31.4541C99.7987 31.2253 99.5842 30.9981 99.3594 30.7803V30.7812ZM52.4258 27.5771C51.8029 27.9044 51.1864 28.2413 50.5762 28.583C50.2709 28.7539 49.9672 28.9259 49.665 29.0986C49.363 29.2713 49.0626 29.445 48.7637 29.6182C48.1674 29.9822 47.5746 30.3504 46.9844 30.7217C47.5745 30.3505 48.1674 29.9822 48.7637 29.6182C50.2586 28.7523 51.7914 27.8856 53.3652 27.0947L52.4258 27.5771ZM33.4893 31.4004L33.4902 31.3994L33.4893 31.4004ZM28.8096 31.0459C28.7189 31.139 28.6344 31.2292 28.5566 31.3145C28.6344 31.2292 28.7189 31.139 28.8096 31.0459ZM76.2187 27.0342C77.9694 27.8596 79.6736 28.7734 81.3359 29.7588C79.6736 28.7733 77.9694 27.8597 76.2187 27.0342ZM97.8633 29.6494V29.6484V29.6494ZM33.0957 29.5322V29.5312V29.5322ZM96.9766 29.2852V29.2842V29.2852ZM31.1768 29.3242V29.3252V29.3242ZM32.0146 29.1465C32.1241 29.1446 32.2325 29.1524 32.3389 29.1709C32.2324 29.1524 32.1242 29.1446 32.0146 29.1465ZM96.1592 29.2227L96.1582 29.2236L96.1592 29.2227ZM55.2734 26.1875V26.1865V26.1875ZM72.8799 25.5947V25.5937V25.5947ZM59.2148 24.709C59.8856 24.5102 60.5636 24.3381 61.249 24.1982C60.5636 24.3381 59.8856 24.5102 59.2148 24.709ZM69.8975 24.6162V24.6152V24.6162ZM68.3721 24.2383V24.2373V24.2383ZM64.7197 23.792C65.6053 23.81 66.4791 23.8993 67.3418 24.042L66.8232 23.9629C66.1294 23.8666 65.4283 23.8064 64.7197 23.792Z" fill="black"/>
<path d="M100.006 91.6538C110.355 94.7386 116.864 83.8893 115.133 73.8994C112.988 61.4984 105.502 56.6147 105.502 56.6147C105.502 56.6147 100.915 52.2688 94.9863 57.9191L100.006 91.66V91.6538Z" fill="#999999" stroke="black" stroke-width="1.46365" stroke-miterlimit="10" stroke-linecap="square"/>
<path d="M27.7138 91.6538C17.3652 94.7386 10.8557 83.8893 12.5866 73.8994C14.7317 61.4984 22.218 56.6147 22.218 56.6147C22.218 56.6147 26.805 52.2688 32.7335 57.9191L27.7138 91.66V91.6538Z" fill="#999999" stroke="black" stroke-width="1.46365" stroke-miterlimit="10" stroke-linecap="square"/>
<path d="M93.9024 39.4227C93.9024 39.4227 75.9996 24.8828 64.3837 24.8828H64.7176C53.1017 24.8828 35.2051 39.4227 35.2051 39.4227L35.2051 53.9811H93.9024L93.9024 39.4227Z" fill="#FF8B62"/>
<path d="M93.5636 39.5839C93.5636 39.621 93.5883 39.6519 93.6131 39.6766L93.5636 39.6395L93.4585 39.5653L93.2483 39.417C91.1527 37.9704 88.9086 36.462 86.745 35.1391C83.2336 32.9507 79.6481 30.9168 75.9019 29.1859C72.2916 27.5662 68.2981 26.0702 64.3911 25.9836V23.7952H64.725V25.9836C54.7535 26.3484 43.1439 33.606 35.4659 39.7446L35.6143 39.4293C35.6019 43.6516 35.9358 49.7037 36.0285 53.9816L35.2063 53.1594C44.9861 52.807 54.7721 52.7575 64.5581 52.6834C74.344 52.6648 84.1238 52.8194 93.9098 53.0728L93.0011 53.9816C93.1433 49.8768 93.3411 43.769 93.576 39.5839H93.5636ZM94.2375 39.2624C94.5095 44.4119 94.6949 49.6604 94.8371 54.8532C89.6381 55.0387 84.4329 55.0696 79.2278 55.1809C64.2675 55.3725 49.3073 55.2612 34.3594 54.7667C34.551 50.0746 34.7179 43.8618 34.7983 39.2191C39.2864 35.7634 43.9228 32.5736 48.7632 29.6186C53.6408 26.7935 58.9201 23.956 64.7188 23.7891V25.9775H64.385V23.7891C67.3399 23.7891 70.1651 24.5927 72.8789 25.5942C80.1241 28.4255 86.5719 32.8518 92.5436 37.754C92.7105 37.9147 93.5574 38.6071 93.7367 38.7864L93.9345 38.9595L94.0335 39.046C94.1015 39.1079 94.188 39.182 94.2313 39.2624H94.2375Z" fill="black"/>
<path d="M99.8132 67.322C99.8132 67.322 108.709 95.2581 90.4352 99.9625C90.4352 99.9625 82.442 103.01 64.6319 103.01H64.4712C46.6611 103.01 38.6678 99.9625 38.6678 99.9625C20.3941 95.2519 29.2899 67.322 29.2899 67.322C34.019 47.9479 53.387 44.622 53.387 44.622C53.387 44.622 64.2054 42.3656 75.7161 44.622C75.7161 44.622 93.4149 48.1519 99.8132 67.322Z" fill="#CCECFF" stroke="black" stroke-width="1.46365" stroke-miterlimit="10"/>
<path d="M81.9098 42.1864C78.5035 37.0925 70.5536 25.7734 64.1368 25.3778V24.3949H64.3408V25.3901C59.0985 25.9589 53.8068 33.3957 50.8086 37.4449C49.6093 39.1696 48.4532 40.95 47.3961 42.7242L45.3066 41.4013C47.8165 37.8653 50.4871 34.5332 53.4482 31.3804C55.7108 29.0622 58.0847 26.7193 61.0334 25.248C62.0349 24.7658 63.1415 24.3887 64.3284 24.3949V25.3901H64.1244V24.3887C65.3113 24.4258 66.3932 24.84 67.3637 25.3469C70.226 26.9109 72.4885 29.3218 74.6398 31.6957C77.4464 34.9165 79.981 38.3413 82.3178 41.9144L81.8974 42.1802L81.9098 42.1864Z" fill="black"/>
<path d="M46.1426 41.9206C48.4855 38.3474 51.0139 34.9227 53.8205 31.7019C55.9718 29.3218 58.2282 26.9109 61.0966 25.3531C62.0672 24.84 63.149 24.4258 64.336 24.3949V25.3778H64.132V24.3887C66.4564 24.4196 68.4408 25.6807 70.2273 26.9913C75.3398 31.0281 79.3457 36.1529 83.1599 41.3951L81.0704 42.7181C77.9053 37.5623 70.4437 26.0269 64.132 25.384V24.3887H64.336V25.3778C62.3392 25.4087 60.4661 26.6142 58.8835 27.8011C53.9256 31.739 50.0557 36.938 46.5629 42.1864L46.1426 41.9206Z" fill="black"/>
<path d="M52.416 65.7145C62.4493 59.7799 66.041 59.7984 76.0186 65.8011L75.8702 66.1411C71.9509 65.2076 68.285 63.1429 64.2359 63.0996C60.1805 63.1676 56.5455 65.2633 52.6386 66.2276L52.416 65.7145Z" fill="black"/>
<path d="M64.4464 24.8828C64.434 31.1266 64.8544 37.4383 65.6828 43.6264H62.5918C63.2347 38.9838 63.5809 34.2422 63.754 29.5687C63.7973 28.2025 63.8529 26.2367 63.8282 24.8828H64.4464Z" fill="black"/>
<path d="M60.0083 74.858C57.1831 68.5463 49.6659 70.1907 48.4666 73.158C47.8175 74.7776 47.5208 77.6028 48.9735 79.649C49.2455 80.0323 49.2888 80.5268 49.0539 80.9287L47.4219 83.7414L51.2485 81.9549C51.6132 81.7818 52.0336 81.7447 52.4292 81.8374H52.4416C53.0536 81.9858 53.5482 82.4123 53.7769 82.9872L54.4816 84.4771L55.378 82.1465C55.4275 82.1465 55.9529 82.0847 56.0024 82.0785C56.0024 82.0785 62.8334 81.1636 60.0083 74.8518V74.858Z" fill="black"/>
<path d="M51.2919 75.7479C52.1693 75.7479 52.8806 75.0532 52.8806 74.1962C52.8806 73.3392 52.1693 72.6445 51.2919 72.6445C50.4144 72.6445 49.7031 73.3392 49.7031 74.1962C49.7031 75.0532 50.4144 75.7479 51.2919 75.7479Z" fill="white"/>
<path d="M69.1769 74.858C72.002 68.5463 79.5192 70.1907 80.7185 73.158C81.3676 74.7776 81.6643 77.6028 80.2116 79.649C79.9396 80.0323 79.8963 80.5268 80.1312 80.9287L81.7632 83.7414L77.9366 81.9549C77.5719 81.7818 77.1515 81.7447 76.7559 81.8374H76.7435C76.1315 81.9858 75.637 82.4123 75.4082 82.9872L74.7035 84.4771L73.8071 82.1465C73.7577 82.1465 73.2322 82.0847 73.1827 82.0785C73.1827 82.0785 66.3517 81.1636 69.1769 74.8518V74.858Z" fill="black"/>
<path d="M72.4149 75.7479C73.2924 75.7479 74.0037 75.0532 74.0037 74.1962C74.0037 73.3392 73.2924 72.6445 72.4149 72.6445C71.5375 72.6445 70.8262 73.3392 70.8262 74.1962C70.8262 75.0532 71.5375 75.7479 72.4149 75.7479Z" fill="white"/>
<path d="M93.2718 90.3186C89.5873 94.0648 83.7269 94.1328 78.8988 93.1623C76.494 92.6615 74.0336 91.9135 71.6536 91.3571C66.9182 90.164 61.917 90.1578 57.1817 91.3448C52.3474 92.5008 47.4266 94.2565 42.3822 93.4713C39.897 93.0695 37.3686 92.1608 35.6191 90.2815L35.8046 90.1207C36.6824 90.9491 37.7952 91.5302 38.9203 91.963C46.2026 94.6706 53.4293 90.5164 60.625 89.4778C64.4022 89.0327 68.2597 89.2182 71.9318 90.2258C74.3365 90.8193 76.7413 91.5488 79.1213 92.1361C83.7145 93.1993 89.235 93.3292 92.9874 90.0775L93.2718 90.3186Z" fill="black"/>
<path d="M44.404 90.7514C44.404 90.7514 40.0148 86.8692 40.2806 80.8974C40.4846 76.2116 35.7184 80.2607 34.1605 84.823C33.0354 88.1241 32.9551 94.1391 39.477 94.8439C45.9989 95.5486 45.4302 91.6664 44.404 90.7514Z" fill="white"/>
<path d="M44.2206 90.9615C41.5191 88.3713 39.0401 84.8847 39.5223 80.9221C39.5656 80.3843 39.6398 79.8588 39.4358 79.4446C39.3987 79.3828 39.3431 79.3334 39.2009 79.3148C38.4899 79.2839 37.6616 79.9515 37.1237 80.4585C34.6448 82.8818 33.8041 86.8753 34.6695 90.1023C35.127 91.8394 36.4623 93.1005 38.1623 93.595C39.8314 94.0278 43.3489 94.7511 44.4493 93.119C44.8697 92.507 44.7213 91.4932 44.2144 90.9615H44.2206ZM44.5915 90.5412C45.7908 91.6972 45.5621 93.8176 44.1897 94.7325C43.3428 95.3507 42.3227 95.6227 41.3089 95.7278C38.8238 95.9813 35.9863 95.4125 34.3048 93.3663C31.0284 89.1502 33.5939 83.5 36.7034 80.0505C37.4143 79.3086 38.0201 78.5544 39.1514 78.3195C40.6042 78.1032 41.0616 79.9145 41.0369 80.9839C41.0987 82.0534 41.1914 83.1043 41.4325 84.1429C41.9085 86.4735 42.8049 88.8721 44.5853 90.5474L44.5915 90.5412Z" fill="black"/>
<path d="M85.2369 90.7514C85.2369 90.7514 89.626 86.8692 89.3602 80.8974C89.1562 76.2116 93.9225 80.2607 95.4803 84.823C96.6054 88.1241 96.6858 94.1391 90.1639 94.8439C83.6358 95.5486 84.2107 91.6664 85.2369 90.7514Z" fill="white"/>
<path d="M85.0513 90.5417C86.9925 88.7119 87.8765 86.0598 88.3278 83.5129C88.8285 81.9365 87.9754 78.2273 90.4914 78.3201C91.6227 78.555 92.2285 79.3092 92.9395 80.051C96.049 83.4943 98.6083 89.1508 95.3381 93.3669C93.6566 95.4131 90.8252 95.9818 88.3339 95.7284C87.3201 95.6233 86.3001 95.3513 85.4532 94.7331C84.0808 93.8243 83.852 91.6977 85.0513 90.5417ZM85.4222 90.9621C84.9091 91.4937 84.767 92.5076 85.1873 93.1196C86.2877 94.7516 89.8176 94.0283 91.4744 93.5956C93.1744 93.101 94.5097 91.8461 94.9671 90.1028C95.8264 86.8758 94.9919 82.8823 92.5129 80.459C91.9751 79.9459 91.1467 79.2844 90.4358 79.3154C90.2998 79.3339 90.2442 79.3834 90.2009 79.4452C89.9969 79.8594 90.0711 80.3786 90.1143 80.9227C90.5965 84.8853 88.1176 88.3719 85.4161 90.9621H85.4222Z" fill="black"/>
<path d="M28.4422 44.9306C27.923 44.9059 27.4531 44.5782 27.2368 44.1022C22.4458 33.4693 34.6922 25.9583 32.7016 31.8311C30.5812 38.0934 37.2082 41.9076 37.2082 41.9076C50.1902 38.6683 59.5991 49.7958 62.925 54.5188C63.5556 55.4151 64.9094 55.4151 65.54 54.5188C68.8658 49.7958 78.2747 38.6683 91.2567 41.9076H91.3124C91.3124 41.9076 97.9394 38.0934 95.819 31.8311C93.8284 25.9645 106.075 33.4693 101.284 44.1022C101.067 44.5782 100.598 44.9059 100.078 44.9306H100.635C100.635 44.9306 107.929 49.7401 104.053 61.9556C100.239 73.9609 82.8246 68.9474 75.9379 65.9677C69.0636 62.988 68.8349 62.172 64.2294 62.172C59.6239 62.172 59.3951 62.9942 52.5208 65.9677C45.6403 68.9474 28.1579 73.1882 23.7563 61.3745C19.2621 49.326 28.4422 44.9244 28.4422 44.9244V44.9306Z" fill="#BCBCBC"/>
<path d="M59.4275 55.7372C59.0071 55.1314 58.5496 54.5565 58.0489 54.0124C55.0012 50.6989 44.3436 40.7337 31.2503 46.9527C31.2503 46.9527 21.9588 51.3233 29.1855 62.1726C35.3303 71.3898 59.582 61.2947 60.2064 58.4696C60.4784 57.2518 59.9777 56.5285 59.4275 55.7372Z" fill="black"/>
<path d="M68.9041 55.7372C69.3245 55.1314 69.7819 54.5565 70.2827 54.0124C73.3303 50.6989 83.988 40.7337 97.0813 46.9527C97.0813 46.9527 106.373 51.3233 99.1461 62.1726C93.0012 71.3898 68.7495 61.2947 68.1252 58.4696C67.8532 57.2518 68.3539 56.5285 68.9041 55.7372Z" fill="black"/>
<path d="M23.7572 61.3809C23.7572 61.3809 13.5014 71.2534 17.5258 88.9151" stroke="black" stroke-width="0.975765" stroke-miterlimit="10"/>
<path d="M104.209 61.3809C104.209 61.3809 114.465 71.2534 110.44 88.9151" stroke="black" stroke-width="0.975765" stroke-miterlimit="10"/>
<path d="M28.5669 45.1778C25.2596 47.0818 23.0773 50.8033 23.0712 54.6237C23.1392 58.3205 24.2086 62.3573 26.8854 65.0156C33.9637 71.5808 48.2934 67.309 55.9404 63.4206C57.1336 62.8704 58.3205 62.2646 59.6867 61.8195C62.4871 61.0282 65.1701 61.0715 68.0137 61.6031C71.9207 62.7653 75.2466 64.9723 79.0423 66.2272C86.3988 68.7865 98.9543 71.7168 103.071 62.8952C105.464 57.1769 105.742 49.3629 100.543 45.0912L100.283 44.8872L100.562 44.7512L100.914 44.5781L101.087 44.9058L100.747 45.1036L100.766 44.7636C106.502 48.9735 106.577 57.282 104.178 63.3773C98.8183 75.4321 79.9634 69.2254 71.0985 64.7559C69.8992 64.2119 68.7432 63.6555 67.5872 63.3897C65.3122 62.9632 62.4871 62.9199 60.2431 63.5752C57.8816 64.4035 55.4583 65.7388 53.0844 66.7156C49.3629 68.3105 45.425 69.3182 41.4067 69.8189C34.8477 70.7091 26.465 69.38 23.5534 62.5613C20.6664 56.1445 21.5875 48.1451 28.332 44.677L28.5731 45.1778H28.5669Z" fill="black"/>
<path d="M32.0097 43.806C30.7486 44.6468 28.9188 45.9017 27.4166 44.9064C26.7613 44.35 26.582 43.4599 26.2791 42.6933C24.9685 38.8914 25.7784 34.4775 28.4613 31.4175C29.4442 30.3109 31.781 28.1596 33.2337 29.6618C33.8581 30.5458 33.4563 31.5411 33.2028 32.4437C32.1457 35.9859 34.5876 39.4292 37.592 41.2344L37.0171 41.154C39.7 40.474 42.5499 40.338 45.2885 40.8264C50.7719 41.8031 55.5567 45.0424 59.3833 48.9432C60.9288 50.5258 62.3444 52.2258 63.6303 54.0309C63.7724 54.2226 63.9826 54.3215 64.2237 54.3277C64.4648 54.3277 64.6812 54.2288 64.8234 54.0371C66.1092 52.2382 67.5249 50.5382 69.0703 48.9556C74.7206 43.0148 83.1589 38.91 91.4242 41.1973L91.2449 41.1725H91.3005L90.9358 41.2715C94.6017 38.9841 96.5984 35.4975 95.0529 31.2629C94.7624 29.9647 95.6031 28.8891 96.9755 29.2847C98.2305 29.6494 99.1763 30.5396 100.005 31.4546C102.663 34.5022 103.467 38.8914 102.156 42.6686C101.767 43.8122 101.284 45.3948 99.7759 45.1784C98.5705 45.061 97.501 44.4119 96.5552 43.7319C96.4748 43.6762 96.4624 43.5649 96.5181 43.4908C96.5737 43.4166 96.6788 43.398 96.753 43.4475C97.8286 44.1028 99.5658 45.1908 100.697 44.4057C101.532 43.3424 101.791 41.6053 101.971 40.2823C102.335 36.4681 100.351 31.8378 96.7035 30.3727C96.1595 30.2491 96.1101 30.4222 96.2152 31.0527C98.0697 35.7634 95.597 40.1154 91.5231 42.6315H91.3067H91.2511C88.6856 42.0689 86.0274 41.8711 83.4433 42.3718C76.1857 43.7628 70.3809 49.1658 66.2143 55.0386C65.0706 56.5841 62.839 56.275 61.9488 54.6306C56.5087 46.9032 47.2729 40.066 37.3942 42.65L37.0727 42.7242L36.8254 42.5697C33.1348 40.3133 30.4272 35.8437 32.121 31.5164C32.2261 31.2506 32.3559 30.5458 32.2385 30.4345C32.2385 30.4222 32.2385 30.416 32.1581 30.3975C32.0839 30.3851 31.9603 30.3975 31.8243 30.4222C30.8661 30.6942 30.0253 31.436 29.333 32.184C26.4027 35.3183 25.6114 40.61 27.8678 44.3377C28.9682 45.0795 30.6744 44.01 31.713 43.3671C31.9974 43.1817 32.2756 43.5959 32.0097 43.7937V43.806Z" fill="black"/>
<path d="M54.6411 57.7179C53.6591 59.6441 50.5514 58.1877 46.3205 56.0467C42.0895 53.9057 38.3227 51.8922 39.298 49.9659C40.2734 48.0397 44.5043 48.2075 48.742 50.3485C52.9797 52.4895 55.6165 55.7916 54.6411 57.7179Z" fill="url(#paint0_linear_1990_1819)"/>
<path d="M98.606 57.7179C97.6239 59.6441 94.5163 58.1877 90.2853 56.0467C86.0544 53.9057 82.2875 51.8922 83.2629 49.9659C84.2382 48.0397 88.4692 48.2075 92.7068 50.3485C96.9445 52.4895 99.5813 55.7916 98.606 57.7179Z" fill="url(#paint1_linear_1990_1819)"/>
<defs>
<linearGradient id="paint0_linear_1990_1819" x1="50.419" y1="51.908" x2="46.9932" y2="58.6167" gradientUnits="userSpaceOnUse">
<stop stop-color="white"/>
<stop offset="1"/>
</linearGradient>
<linearGradient id="paint1_linear_1990_1819" x1="94.3838" y1="51.908" x2="90.9581" y2="58.6167" gradientUnits="userSpaceOnUse">
<stop stop-color="white"/>
<stop offset="1"/>
</linearGradient>
</defs>
</svg>
